<svg xmlns="http://www.w3.org/2000/svg" viewBox="0 0 80.022 19"><defs><style>.cls-2{fill:#ff5943}.cls-3{fill:#96f}</style></defs><g id="Layer_2" data-name="Layer 2"><g id="CivicNet_Logo_Oriz._default_" data-name="CivicNet Logo Oriz. (default)"><g id="CivicNet_Logo_TextReversed"><path d="M5.5 15.173a.974.974 0 01-.125.427c-.052.06-.258.2-1.064.227a6.63 6.63 0 01-.492.01 4.625 4.625 0 01-1.409-.126c-.19-.032-.334-.245-.425-.637a6.571 6.571 0 01-.167-1.627V11.29a6.596 6.596 0 01.168-1.63c.09-.388.233-.601.453-.64a4.638 4.638 0 011.38-.12c.185.006.346 0 .498.011.8.027 1.006.167 1.057.225a.962.962 0 01.126.424l.177 1.367h1.591l-.007-.155a8.863 8.863 0 00-.154-1.536 2.498 2.498 0 00-.384-.855 1.631 1.631 0 00-.705-.576 3.88 3.88 0 00-.958-.267 9 9 0 00-1.316-.077 9.947 9.947 0 00-1.058.044 4.965 4.965 0 00-.867.144 3.318 3.318 0 00-.666.272 1.762 1.762 0 00-.49.442 2.945 2.945 0 00-.341.582 3.832 3.832 0 00-.19.762 8.423 8.423 0 00-.109.95c-.01.32-.02.695-.02 1.135L0 12.004c-.001.135-.002.261.001.373-.003.1-.002.222-.001.354l.001.215c0 .44.011.814.022 1.14a8.384 8.384 0 00.108.94 3.823 3.823 0 00.193.775 2.96 2.96 0 00.338.574 1.776 1.776 0 00.495.445 3.343 3.343 0 00.668.27 4.996 4.996 0 00.854.142 9.916 9.916 0 001.064.044A8.914 8.914 0 005.06 17.2a3.865 3.865 0 00.959-.268 1.623 1.623 0 00.698-.569 2.506 2.506 0 00.389-.861 8.83 8.83 0 00.154-1.536l.007-.155h-1.59zm3.921-7.461h1.894v9.485H9.421zm9.659 0l-2.001 7.227-2.131-7.182h-1.814l2.967 9.278h1.95l2.991-9.323H19.08zm3.57 0h1.894v9.323H22.65zm9.59 7.461a.974.974 0 01-.126.427c-.052.06-.258.2-1.064.227a6.63 6.63 0 01-.492.01 4.625 4.625 0 01-1.409-.126c-.19-.032-.334-.245-.425-.637a6.571 6.571 0 01-.167-1.627V11.29a6.597 6.597 0 01.168-1.63c.09-.388.233-.601.453-.64a4.638 4.638 0 011.38-.12c.185.006.346 0 .498.011.8.027 1.006.167 1.057.225a.962.962 0 01.126.424l.177 1.367h1.591L34 10.771a8.863 8.863 0 00-.154-1.536 2.498 2.498 0 00-.384-.855 1.631 1.631 0 00-.705-.576 3.88 3.88 0 00-.958-.267 9 9 0 00-1.316-.077 9.947 9.947 0 00-1.059.044 4.965 4.965 0 00-.866.144 3.317 3.317 0 00-.666.272 1.762 1.762 0 00-.49.442 2.945 2.945 0 00-.342.582 3.832 3.832 0 00-.189.762 8.423 8.423 0 00-.109.95c-.01.32-.02.695-.02 1.135l-.002.213c-.001.135-.002.261.001.373-.003.1-.002.222-.001.354l.001.215c0 .44.011.814.022 1.14a8.386 8.386 0 00.108.94 3.823 3.823 0 00.193.775 2.962 2.962 0 00.338.574 1.777 1.777 0 00.495.445 3.343 3.343 0 00.668.27 4.997 4.997 0 00.854.142 9.917 9.917 0 001.064.044A8.914 8.914 0 0031.8 17.2a3.865 3.865 0 00.96-.268 1.622 1.622 0 00.698-.569 2.506 2.506 0 00.388-.861A8.831 8.831 0 0034 13.966l.006-.155h-1.59zm32.354-4.188a11.78 11.78 0 00-.065-.895 4.392 4.392 0 00-.143-.768 3.897 3.897 0 00-.24-.604 1.562 1.562 0 00-.387-.504 2.506 2.506 0 00-.521-.329 2.54 2.54 0 00-.689-.205 5.585 5.585 0 00-.857-.06 4.667 4.667 0 00-1.774.308 1.71 1.71 0 00-.885.752l-.397-.804h-1.354v6.26h1.894v-1.9q0-.33-.025-.866-.024-.525-.024-.738a2.903 2.903 0 01.053-.606 1.231 1.231 0 01.185-.43.84.84 0 01.363-.292 2.73 2.73 0 01.671-.182 6.563 6.563 0 011.026-.068c.186 0 .335.003.445.008a1.192 1.192 0 01.304.055.978.978 0 01.222.093.43.43 0 01.124.164 1.038 1.038 0 01.103.28c.02.103.04.26.058.465.018.21.03.42.032.626q.005.317.005.841v5.612h1.893v-5.159c0-.408-.006-.76-.017-1.054zm5.224 1.69h4.468v-.149c0-.524 0-1.08-.01-1.427-.02-.323-.042-.688-.087-1.044a4.165 4.165 0 00-.177-.848 2.498 2.498 0 00-.307-.635 1.583 1.583 0 00-.486-.483 3.014 3.014 0 00-.655-.27 4.972 4.972 0 00-.866-.166 15.781 15.781 0 00-1.09-.032 11.475 11.475 0 00-1.502.075 2.847 2.847 0 00-1.078.33 2.491 2.491 0 00-.681.569 2.385 2.385 0 00-.381.99 7.638 7.638 0 00-.153 1.291 37.403 37.403 0 00-.032 1.778c0 .547.01.964.021 1.275.01.268.037.594.087 1.029a2.627 2.627 0 00.252.895 3.447 3.447 0 00.456.631 1.722 1.722 0 00.766.505 8.322 8.322 0 001.045.239 9.135 9.135 0 001.435.098c.424 0 .778-.022 1.07-.043a3.503 3.503 0 00.813-.156 1.54 1.54 0 00.616-.324 1.59 1.59 0 00.417-.533 2.753 2.753 0 00.226-.744 11.21 11.21 0 00.088-1.182l.004-.153H72.55l-.06.524q-.014.25-.03.374a1.577 1.577 0 01-.07.3.345.345 0 01-.117.186 1.744 1.744 0 01-.309.167 1.456 1.456 0 01-.49.114 5.444 5.444 0 01-.77.041 4.602 4.602 0 01-1.6-.17.615.615 0 01-.379-.592 133.58 133.58 0 01-.064-2.607l.011-1.306.01-.255c.003-.093.005-.171.011-.243 0-.08.006-.184.014-.312l.02-.24a1.982 1.982 0 01.049-.325 2.816 2.816 0 01.092-.335.51.51 0 01.142-.238.373.373 0 01.18-.108 4.585 4.585 0 011.408-.117 4.015 4.015 0 011.373.147.571.571 0 01.339.547c.044.603.071 1.184.082 1.77h-2.574zm10.204-3.199V7.824h-1.637V5.925H76.5V7.96h1.028v1.378H76.5v5.753a4.7 4.7 0 00.075.924 1.932 1.932 0 00.29.69 1.25 1.25 0 00.655.477 3.233 3.233 0 001.024.14 8.024 8.024 0 001.289-.118l.124-.02v-1.44l-.16.013c-.427.033-.767.05-1.01.05-.272 0-.308-.113-.324-.161a4.433 4.433 0 01-.078-1.106V9.476z" fill="#fff" id="text"/><g id="simbol"><path class="cls-2" d="M43.13 2.358a46.014 46.014 0 01-1.462-.277l-.725-.156a2.965 2.965 0 01-.706-.21L37.47.72l.493-.346-.089 10.288-.264-.359 1.007.299.506.142c.164.064.323.142.485.212.647.287 1.29.584 1.928.898a53.122 53.122 0 01-2.103-.298c-.174-.03-.35-.05-.522-.087l-.502-.156-1.008-.298a.371.371 0 01-.264-.36L37.225.369A.37.37 0 0137.597 0a.376.376 0 01.121.022l2.768.992a2.968 2.968 0 01.678.287l.66.34c.437.233.873.47 1.305.717z"/><path class="cls-2" d="M42.422 3.071l-3.251-.872-.093 7.554 4.739 2.098"/><path class="cls-3" d="M39.592 12.018c-.003.418-.016.833-.047 1.242a4.402 4.402 0 01-.253 1.183l-.654 2.323-.257-.459 2.57.716-.388.128 1.624-2.075.406-.52c.072-.082.127-.178.198-.263.079-.077.17-.145.254-.219.341-.29.692-.572 1.055-.844-.177.42-.368.828-.568 1.23-.05.1-.095.205-.151.3-.065.089-.145.166-.208.256l-.406.518-1.624 2.076a.368.368 0 01-.388.128l-2.57-.716a.371.371 0 01-.257-.456v-.002l.655-2.324a4.397 4.397 0 01.402-1.14c.186-.365.392-.725.607-1.082z"/><path class="cls-3" d="M40.334 12.615l-.46 3.001.651.181 2.428-2.682"/><path d="M50.36 15.962l-1.818-1.91-.068.115 1.746 2.3a4.09 4.09 0 00-.08.322c-.03.197-.047.396-.08.592l-.134.868-2.073.008-1.717-7.276-.892-3.78-.218-.947-.337-.918c-.227-.612-.45-1.224-.696-1.83.05.653.125 1.3.195 1.95l.11.972.228.944.892 3.78 1.785 7.563a.37.37 0 00.36.285l2.681-.01a.37.37 0 00.364-.315l.18-1.181c.027-.198.07-.392.1-.59.023-.197.019-.4.03-.6.03-.8.05-1.604.048-2.41a56.756 56.756 0 00-.605 2.068z" fill="#50a162"/><path d="M55.783 2.698l-5.094.308a.371.371 0 00-.275.15l-.929 1.27c-.305.425-.626.84-.927 1.269-.519.92-1.061 1.822-1.56 2.757.739-.757 1.434-1.547 2.152-2.319.318-.417.616-.848.93-1.268l.355-.486-.14 4.736-2.908.776 2.983-.39 1.933 2.86c-.134.012-.269.032-.403.05l-.93.13a65.72 65.72 0 00-1.856.3 68.42 68.42 0 001.872.177l.935.07c.156.011.312.027.468.027l.466-.025h.008a.37.37 0 00.332-.261l2.963-9.651a.38.38 0 00.015-.132.37.37 0 00-.39-.348zM54.67 5.511L51.694 3.69l3.602-.218zM50.944 3.81L54.52 6l-.267.867-3.46 2.004zm3.096 3.75l-1.37 4.464-1.783-2.638z" fill="#f49a0b"/></g></g></g></g></svg>